# AST/ASF file generated using VICON BodyLanguage
# -----------------------------------------------
:version 1.10
:name VICON
:units
  mass 1.0
  length 0.45
  angle deg
:documentation
   .ast/.asf automatically generated from VICON data using
   VICON BodyBuilder and BodyLanguage model FoxedUp or BRILLIANT.MOD
:root
   order TX TY TZ RX RY RZ
   axis XYZ
   position 0 0 0  
   orientation 0 0 0 
:bonedata
  begin
     id 1 
     name lhipjoint
     direction 0.700308 -0.549349 0.455834 
     length 2.59063 
     axis 0 0 0  XYZ
  end
  begin
     id 2 
     name lfemur
     direction 0.34202 -0.939693 0  
     length 6.31066  
     axis 0 0 20  XYZ
    dof rx ry rz
    limits (-160.0 20.0)
           (-70.0 70.0)
           (-60.0 70.0)
  end
  begin
     id 3 
     name ltibia
     direction 0.34202 -0.939693 0   
     length 7.36093   
     axis 0 0 20   XYZ
    dof rx
    limits (-10.0 170.0)
  end
  begin
     id 4 
     name lfoot
     direction 0.0905332 -0.248738 0.96433   
     length 2.0233   
     axis -90 7.62852e-016 20   XYZ
    dof rx rz
    limits (-45.0 90.0)
           (-70.0 20.0)
  end
  begin
     id 5 
     name ltoes
     direction 1.53573e-011 -4.21855e-011 1   
     length 1.01524   
     axis -90 7.62852e-016 20   XYZ
    dof rx
    limits (-90.0 20.0)
  end
  begin
     id 6 
     name rhipjoint
     direction -0.61416 -0.607328 0.503944   
     length 2.34332  
     axis 0 0 0  XYZ 
  end
  begin
     id 7 
     name rfemur
     direction -0.34202 -0.939693 0   
     length 6.58548   
     axis 0 0 -20   XYZ
    dof rx ry rz
    limits (-160.0 20.0)
           (-70.0 70.0)
           (-70.0 60.0)
  end
  begin
     id 8 
     name rtibia
     direction -0.34202 -0.939693 0   
     length 7.20707   
     axis 0 0 -20   XYZ
    dof rx
    limits (-10.0 170.0)
 end
 begin
     id 9 
     name rfoot
     direction -0.136772 -0.375778 0.916561   
     length 1.92184  
     axis -90 -7.62852e-016 -20   XYZ
    dof rx rz
    limits (-45.0 90.0)
           (-20.0 70.0)
  end
  begin
     id 10 
     name rtoes
     direction -1.53535e-011 -4.21828e-011 1   
     length 0.951089   
     axis -90 -7.62852e-016 -20   XYZ
    dof rx
    limits (-90.0 20.0)
  end
  begin
     id 11 
     name lowerback
     direction -0.0444974 0.988086 -0.147332   
     length 1.9609   
     axis 0 0 0   XYZ
    dof rx ry rz
    limits (-20.0 45.0)
           (-30.0 30.0)
           (-30.0 30.0)
  end
  begin
     id 12 
     name upperback
     direction 0.00613146 0.999513 0.0306081   
     length 1.94944   
     axis 0 0 0   XYZ
    dof rx ry rz
    limits (-20.0 45.0)
           (-30.0 30.0)
           (-30.0 30.0)
  end
  begin
     id 13 
     name thorax
     direction 0.0254621 0.994518 0.101418   
     length 2.0119   
     axis 0 0 0   XYZ
    dof rx ry rz
    limits (-20.0 45.0)
           (-30.0 30.0)
           (-30.0 30.0)
  end
  begin
     id 14 
     name lowerneck
     direction 0.0168698 0.977854 0.208608   
     length 1.6375   
     axis 0 0 0   XYZ
    dof rx ry rz
    limits (-20.0 45.0)
           (-30.0 30.0)
           (-30.0 30.0)
  end
  begin
     id 15 
     name upperneck
     direction -0.0283988 0.989338 -0.142843   
     length 1.6851   
     axis 0 0 0   XYZ
    dof rx ry rz
    limits (-20.0 45.0)
           (-30.0 30.0)
           (-30.0 30.0)
  end
  begin
     id 16
     name head
     direction -0.0129422 0.99741 -0.0707489  
     length 1.69029  
     axis 0 0 0   XYZ
    dof rx ry rz
    limits (-20.0 45.0)
           (-30.0 30.0)
           (-30.0 30.0)
  end
  begin
     id 17 
     name lclavicle
     direction 0.820295 0.564628 -0.0911715  
     length 3.16484  
     axis 0 0 0   XYZ
    dof ry rz
    limits (-20.0 10.0)
           (0.0 20.0)
  end
  begin
     id 18 
     name lhumerus
     direction 1 -4.48969e-011 1.00186e-027   
     length 5.17853   
     axis 180 -30 -90   XYZ
    dof rx ry rz
    limits (-60.0 90.0)
           (-90.0 90.0)
           (-90.0 90.0)
  end
  begin
     id 19
     name lradius
     direction 1 -4.48966e-011 -1.52922e-027   
     length 3.40399   
     axis 180 -30 -90   XYZ
    dof rx
    limits (-10.0 170.0)
  end
  begin
     id 20
     name lwrist
     direction 1 -4.48981e-011 -3.80893e-027   
     length 1.70199   
     axis 1.1049e-015 90 90   XYZ
    dof ry
    limits (-180.0 0.0)
 end
  begin
     id 21 
     name lhand
     direction 1 -4.48957e-011 -7.61786e-027   
     length 0.708964   
     axis 4.86085e-015 90 90   XYZ
    dof rx rz
    limits (-90.0 90.0)
           (-45.0 45.0)
  end
  begin
     id 22 
     name lfingers
     direction 1 -4.48929e-011 -1.52357e-026   
     length 0.571585   
     axis 9.7217e-015 90 90   XYZ
    dof rx
    limits (0.0 90.0)
  end
  begin
     id 23
     name lthumb
     direction 0.707107 -6.34905e-011 0.707107   
     length 0.820685   
     axis -90 45 2.85299e-015   XYZ
    dof rx rz
    limits (-45.0 45.0)
           (-45.0 45.0)
  end
  begin
     id 24 
     name rclavicle
     direction -0.858602 0.463947 -0.218075   
     length 3.35137  
     axis 0 0 0   XYZ 
    dof ry rz
    limits (-10.0 20.0)
           (-20.0 0.0)
  end
  begin
     id 25 
     name rhumerus
     direction -1 -4.48969e-011 -1.98511e-027  
     length 5.42351   
     axis 180 30 90   XYZ
    dof rx ry rz
    limits (-90.0 60.0)
           (-90.0 90.0)
           (-90.0 90.0)
  end
  begin
     id 26 
     name rradius
     direction -1 -4.48961e-011 -2.82624e-027   
     length 3.42066   
     axis 180 30 90   XYZ
    dof rx
    limits (-10.0 170.0)
  end
  begin
     id 27 
     name rwrist
     direction -1 -4.48966e-011 -3.80893e-027   
     length 1.71033   
     axis 1.1049e-015 -90 -90   XYZ
    dof ry
    limits (-180.0 0.0)
  end
  begin
     id 28
     name rhand
     direction -1 -4.48964e-011 -7.61786e-027   
     length 0.743608   
     axis 4.86085e-015 -90 -90   XYZ
    dof rx rz
    limits (-90.0 90.0)
           (-45.0 45.0)
  end
  begin
     id 29
     name rfingers
     direction -1 -4.48961e-011 -1.52357e-026   
     length 0.599516   
     axis 9.7217e-015 -90 -90   XYZ
    dof rx
    limits (0.0 90.0)
  end
  begin
     id 30
     name rthumb
     direction -0.707107 -6.34913e-011 0.707107   
     length 0.860789   
     axis -90 -45 -2.85299e-015   XYZ
    dof rx rz
    limits (-45.0 45.0)
           (-45.0 45.0)
  end
:hierarchy
  begin
    root lhipjoint rhipjoint lowerback
    lhipjoint lfemur
    lfemur ltibia
    ltibia lfoot
    lfoot ltoes
    rhipjoint rfemur
    rfemur rtibia
    rtibia rfoot
    rfoot rtoes
    lowerback upperback
    upperback thorax
    thorax lowerneck lclavicle rclavicle
    lowerneck upperneck
    upperneck head
    lclavicle lhumerus
    lhumerus lradius
    lradius lwrist
    lwrist lhand lthumb
    lhand lfingers
    rclavicle rhumerus
    rhumerus rradius
    rradius rwrist
    rwrist rhand rthumb
    rhand rfingers
  end

#!OML:ASF E:\mmandel\Project 1\Capture day 1\Session 2\Subject.ASF
:FULLY-SPECIFIED
:DEGREES
702
root 6.85847 15.5885 -1.38193 70.937 83.8474 51.7259
lowerback 26.5564 0.950234 -6.80861
upperback 4.62253 -0.611423 -3.77817
thorax -9.53136 0.0584109 -0.144626
lowerneck -18.5457 -0.319449 0.0673855
upperneck 5.18757 0.402711 -6.90136
head 4.55678 -0.212147 -2.13761
rclavicle -9.54166e-015 1.66979e-014
rhumerus -22.7125 19.5854 -85.9537
rradius 71.0541
rwrist -6.62472
rhand -4.67584 29.9079
rfingers 7.12502
rthumb 21.1048 1.03647
lclavicle -9.54166e-015 1.66979e-014
lhumerus 6.41828 -39.9916 48.1542
lradius 74.6633
lwrist 32.9298
lhand -16.3493 -22.965
lfingers 7.12502
lthumb 9.86312 6.78399
rfemur -50.6232 -9.5806 9.49748
rtibia 55.7962
rfoot -23.3095 -5.60546
rtoes -9.84956
lfemur -42.6298 17.6516 -18.8058
ltibia 41.6601
lfoot -14.2083 -5.09116
ltoes -13.952
703
root 6.86471 15.5748 -1.31833 72.4885 83.7455 53.2542
lowerback 26.4694 0.896525 -6.59235
upperback 4.63679 -0.61392 -3.79435
thorax -9.47459 0.0485873 -0.283316
lowerneck -18.6033 -0.148997 0.174039
upperneck 5.12823 0.639246 -7.20023
head 4.55957 -0.110683 -2.22728
rclavicle 0 -5.1684e-015
rhumerus -22.3557 19.64 -85.7917
rradius 71.2642
rwrist -6.436
rhand -4.70923 30.0023
rfingers 7.12502
rthumb 21.0728 1.12727
lclavicle 0 -5.1684e-015
lhumerus 6.28617 -39.4517 48.6918
lradius 74.863
lwrist 32.6631
lhand -16.5297 -23.4148
lfingers 7.12502
lthumb 9.68916 6.34231
rfemur -50.8028 -9.65445 9.58599
rtibia 56.2327
rfoot -23.6717 -5.50911
rtoes -9.3079
lfemur -42.8986 18.0135 -18.8322
ltibia 42.0044
lfoot -13.8347 -5.5691
ltoes -13.8571
704
root 6.86848 15.56 -1.25531 74.8406 83.6128 55.54
lowerback 26.4317 0.809416 -6.48558
upperback 4.5946 -0.698569 -3.78381
thorax -9.50177 0.00573028 -0.303841
lowerneck -18.743 -0.000886761 0.0270713
upperneck 5.18457 0.879192 -7.19438
head 4.6081 0.000938732 -2.18112
rclavicle -2.38542e-015 -1.63003e-014
rhumerus -21.9903 19.9118 -85.577
rradius 71.4815
rwrist -6.36851
rhand -4.54341 30.0865
rfingers 7.12502
rthumb 21.2321 1.22931
lclavicle -2.38542e-015 -1.63003e-014
lhumerus 5.89979 -38.9375 49.3215
lradius 75.1414
lwrist 32.274
lhand -16.9628 -23.7724
lfingers 7.12502
lthumb 9.27122 6.00376
rfemur -51.0779 -9.87363 9.64806
rtibia 56.6568
rfoot -23.869 -5.46662
rtoes -9.06486
lfemur -43.3482 18.3967 -18.9672
ltibia 42.4483
lfoot -13.3868 -6.20993
ltoes -13.4832
705
root 6.87059 15.5334 -1.19155 76.87 83.4341 57.4867
lowerback 26.4402 0.731835 -6.47416
upperback 4.50976 -0.805335 -3.75725
thorax -9.59842 -0.0431137 -0.246026
lowerneck -18.9514 -0.00458817 -0.131619
upperneck 5.23891 0.916837 -7.13805
head 4.6579 0.0152312 -2.13605
rclavicle 1.07344e-014 -5.96354e-015
rhumerus -21.6303 20.3294 -85.3591
rradius 71.6866
rwrist -6.34155
rhand -4.44219 29.9546
rfingers 7.12502
rthumb 21.3293 1.10845
lclavicle 1.07344e-014 -5.96354e-015
lhumerus 5.37337 -38.3378 50.0841
lradius 75.3815
lwrist 31.8791
lhand -17.1481 -24.3225
lfingers 7.12502
lthumb 9.0924 5.4615
rfemur -51.4096 -9.99932 9.64025
rtibia 57.0938
rfoot -24.1152 -5.3289
rtoes -8.38464
lfemur -43.8992 18.8837 -19.1442
ltibia 42.9667
lfoot -12.8464 -7.01515
ltoes -12.8597
706
root 6.87292 15.5114 -1.13305 78.2847 83.3629 58.8621
lowerback 26.4369 0.641678 -6.26179
upperback 4.46612 -0.867166 -3.72139
thorax -9.64802 -0.0786637 -0.306289
lowerneck -19.2701 -0.00609411 -0.0107972
upperneck 5.3043 0.937077 -7.44078
head 4.73298 0.00226067 -2.25175
rclavicle 5.96354e-015 2.94201e-014
rhumerus -21.1816 20.6448 -85.1097
rradius 71.8303
rwrist -6.34915
rhand -4.72667 29.9113
rfingers 7.12502
rthumb 21.056 1.03441
lclavicle 5.96354e-015 2.94201e-014
lhumerus 4.96354 -37.732 50.786
lradius 75.669
lwrist 31.7426
lhand -16.9379 -24.7204
lfingers 7.12502
lthumb 9.29531 5.05468
rfemur -51.6694 -10.1087 9.75733
rtibia 57.5243
rfoot -24.383 -5.20724
rtoes -8.21107
lfemur -44.3919 19.2985 -19.1418
ltibia 43.5267
lfoot -12.3842 -7.76193
ltoes -12.7519
707
root 6.87711 15.5013 -1.08159 79.6495 83.2953 60.2154
lowerback 26.4284 0.543572 -5.95188
upperback 4.40982 -0.915195 -3.6947
thorax -9.71257 -0.111427 -0.437296
lowerneck -19.3003 0.0594468 0.176019
upperneck 5.21561 1.02566 -7.85119
head 4.71976 0.0268656 -2.40269
rclavicle 2.50469e-014 1.63003e-014
rhumerus -20.8166 20.8448 -84.8609
rradius 72.0106
rwrist -6.38419
rhand -4.94707 30.0289
rfingers 7.12502
rthumb 20.8443 1.12859
lclavicle 2.50469e-014 1.63003e-014
lhumerus 4.598 -37.3312 51.3871
lradius 76.014
lwrist 31.9418
lhand -16.8683 -24.8271
lfingers 7.12502
lthumb 9.36246 4.94498
rfemur -51.8686 -10.3578 9.91817
rtibia 57.9352
rfoot -24.5632 -5.1333
rtoes -8.59801
lfemur -44.7942 19.5823 -19.1011
ltibia 44.1058
lfoot -12.0454 -8.34899
ltoes -13.2982
708
root 6.88255 15.4885 -1.0322 80.8786 83.1564 61.4361
lowerback 26.3975 0.461787 -5.73303
upperback 4.34656 -0.966356 -3.67359
thorax -9.77171 -0.14303 -0.52159
lowerneck -19.0473 0.130323 0.0871022
upperneck 4.9892 1.12484 -7.87083
head 4.61387 0.0850081 -2.38175
rclavicle 4.77083e-015 3.4191e-014
rhumerus -20.4413 21.063 -84.5888
rradius 72.2121
rwrist -6.37072
rhand -4.94938 30.0379
rfingers 7.12502
rthumb 20.842 1.13736
lclavicle 4.77083e-015 3.4191e-014
lhumerus 4.23635 -36.9494 52.0027
lradius 76.2927
lwrist 32.1411
lhand -16.8 -25.0366
lfingers 7.12502
lthumb 9.42832 4.73251
rfemur -52.0474 -10.5427 9.97082
rtibia 58.3509
rfoot -24.8022 -5.00717
rtoes -8.38895
lfemur -45.1777 19.9252 -19.1398
ltibia 44.6946
lfoot -11.562 -8.99934
ltoes -13.3449
709
root 6.88704 15.4707 -0.985225 82.011 83.0009 62.5856
lowerback 26.4474 0.406576 -5.50493
upperback 4.26112 -0.990418 -3.66458
thorax -9.89937 -0.161275 -0.635291
lowerneck -19.0048 0.0888078 -0.058829
upperneck 4.98328 1.08576 -7.71795
head 4.60107 0.0733991 -2.31332
rclavicle -1.19271e-015 -1.86858e-014
rhumerus -20.0536 21.2067 -84.2683
rradius 72.3794
rwrist -6.3768
rhand -4.94191 29.893
rfingers 7.12502
rthumb 20.8492 0.993258
lclavicle -1.19271e-015 -1.86858e-014
lhumerus 3.80391 -36.5795 52.7754
lradius 76.5403
lwrist 31.9922
lhand -16.7829 -25.4613
lfingers 7.12502
lthumb 9.4448 4.30708
rfemur -52.1819 -10.6634 9.95643
rtibia 58.7742
rfoot -25.1224 -4.73044
rtoes -7.55211
lfemur -45.5708 20.2706 -19.1758
ltibia 45.3138
lfoot -10.9944 -9.74014
ltoes -13.018
710
root 6.89204 15.4486 -0.94178 83.4255 82.8307 64.0367
lowerback 26.5012 0.35369 -5.27865
upperback 4.22376 -1.00433 -3.65001
thorax -9.97436 -0.174874 -0.744537
lowerneck -19.2521 0.0703728 -0.104758
upperneck 5.11533 1.09149 -7.7366
head 4.68119 0.0658569 -2.31385
rclavicle 2.78299e-015 -1.78906e-014
rhumerus -19.6547 21.2693 -83.8978
rradius 72.6084
rwrist -6.45759
rhand -5.02899 29.8205
rfingers 7.12502
rthumb 20.7656 0.911621
lclavicle 2.78299e-015 -1.78906e-014
lhumerus 3.40865 -36.1676 53.6013
lradius 76.7722
lwrist 31.6346
lhand -17.0773 -25.8414
lfingers 7.12502
lthumb 9.16076 3.93961
rfemur -52.328 -10.8414 9.92555
rtibia 59.2207
rfoot -25.3822 -4.59044
rtoes -7.47168
lfemur -45.9468 20.387 -19.1541
ltibia 45.9749
lfoot -10.5141 -10.3881
ltoes -12.7978
